<?xml version="1.0" encoding="iso-8859-1"?>
<!-- Generator: Adobe Illustrator 19.0.0, SVG Export Plug-In . SVG Version: 6.00 Build 0)  -->
<svg version="1.1" id="Capa_1" xmlns="http://www.w3.org/2000/svg" xmlns:xlink="http://www.w3.org/1999/xlink" x="0px" y="0px"
	 viewBox="0 0 480 480" style="enable-background:new 0 0 480 480;" xml:space="preserve">
<g>
	<path style="fill:#726658;" d="M240,64c8.837,0.009,16.007-7.147,16.016-15.984S248.869,32.009,240.033,32
		c-8.837-0.009-16.007,7.147-16.016,15.984c-0.003,2.814,0.737,5.579,2.144,8.016C229.015,60.945,234.29,63.994,240,64z"/>
	<path style="fill:#726658;" d="M144,104h192V56c0-8.837-7.163-16-16-16h-26.8C286.464,20.812,268.336,7.978,248,8h-16
		c-20.336-0.022-38.464,12.812-45.2,32H160c-8.837,0-16,7.163-16,16V104z M226.16,40c4.418-7.586,14.15-10.154,21.736-5.736
		s10.154,14.15,5.736,21.736c-4.418,7.586-14.15,10.154-21.736,5.736C227.007,58.889,224,53.658,224,48
		C224.005,45.19,224.75,42.431,226.16,40z"/>
</g>
<path style="fill:#C2B59B;" d="M72,472h336V56h-72v32h40v352H104V88h40V56H72V472z"/>
<path style="fill:#FFEA95;" d="M144,104V88h-40v352h272V88h-40v16H144z M192,168h32v-32h32v32h32v32h-32v32h-32v-32h-32V168z"/>
<path style="fill:#FF7754;" d="M224,232h32v-32h32v-32h-32v-32h-32v32h-32v32h32V232z"/>
<g>
	<path style="fill:#231F20;" d="M240,72c13.255,0.018,24.015-10.713,24.033-23.967C264.051,34.778,253.32,24.018,240.065,24
		c-13.255-0.018-24.015,10.713-24.033,23.967c-0.006,4.224,1.103,8.375,3.215,12.033C223.506,67.439,231.429,72.02,240,72z
		 M233.072,44c2.206-3.828,7.097-5.144,10.925-2.939c1.221,0.704,2.235,1.717,2.939,2.939c1.419,2.444,1.419,5.46,0,7.904
		c-2.444,3.828-7.529,4.951-11.357,2.507c-1.008-0.643-1.863-1.499-2.507-2.507c-1.425-2.448-1.425-5.472,0-7.92V44z"/>
	<path style="fill:#231F20;" d="M408,48h-65.472C339.15,38.445,330.134,32.042,320,32h-21.432C289.324,12.447,269.628-0.016,248,0
		h-16c-21.628-0.016-41.324,12.447-50.568,32H160c-10.134,0.042-19.15,6.445-22.528,16H72c-4.418,0-8,3.582-8,8v416
		c0,4.418,3.582,8,8,8h336c4.418,0,8-3.582,8-8V56C416,51.582,412.418,48,408,48z M144,112h192c4.418,0,8-3.582,8-8v-8h24v336H112
		V96h24v8C136,108.418,139.582,112,144,112z M160,48h26.8c3.405-0.002,6.435-2.159,7.552-5.376
		C199.969,26.651,215.068,15.973,232,16h16c16.932-0.027,32.031,10.651,37.648,26.624c1.117,3.217,4.147,5.374,7.552,5.376H320
		c4.418,0,8,3.582,8,8v40H152V56C152,51.582,155.582,48,160,48z M400,464H80V64h56v16h-32c-4.418,0-8,3.582-8,8v352
		c0,4.418,3.582,8,8,8h272c4.418,0,8-3.582,8-8V88c0-4.418-3.582-8-8-8h-32V64h56V464z"/>
	<path style="fill:#231F20;" d="M216,240h48v-32h32v-48h-32v-32h-48v32h-32v48h32V240z M200,192v-16h32v-32h16v32h32v16h-32v32h-16
		v-32H200z"/>
	<path style="fill:#231F20;" d="M184,360h152v16H184V360z"/>
	<path style="fill:#231F20;" d="M184,328h152v16H184V328z"/>
	<path style="fill:#231F20;" d="M184,296h152v16H184V296z"/>
	<path style="fill:#231F20;" d="M144,296h24v16h-24V296z"/>
	<path style="fill:#231F20;" d="M144,360h24v16h-24V360z"/>
	<path style="fill:#231F20;" d="M144,328h24v16h-24V328z"/>
</g>
<g>
</g>
<g>
</g>
<g>
</g>
<g>
</g>
<g>
</g>
<g>
</g>
<g>
</g>
<g>
</g>
<g>
</g>
<g>
</g>
<g>
</g>
<g>
</g>
<g>
</g>
<g>
</g>
<g>
</g>
</svg>
